<?xml version="1.0" encoding="utf-8"?>
<!-- Generator: Adobe Illustrator 16.0.0, SVG Export Plug-In . SVG Version: 6.00 Build 0)  -->
<!DOCTYPE svg PUBLIC "-//W3C//DTD SVG 1.1//EN" "http://www.w3.org/Graphics/SVG/1.1/DTD/svg11.dtd">
<svg version="1.1" id="Calque_1" xmlns="http://www.w3.org/2000/svg" xmlns:xlink="http://www.w3.org/1999/xlink" x="0px" y="0px"
	 width="150px" height="76.5px" viewBox="0 0 150 76.5" enable-background="new 0 0 150 76.5" xml:space="preserve">
<polygon fill="#17268A" points="0.765,1.09 0.765,68.675 73.38,75.251 149.088,68.758 149.088,1.09 "/>
<g>
	<defs>
		<rect id="SVGID_1_" x="0.765" y="1.089" width="148.323" height="74.162"/>
	</defs>
	<clipPath id="SVGID_2_">
		<use xlink:href="#SVGID_1_"  overflow="visible"/>
	</clipPath>
	<path clip-path="url(#SVGID_2_)" fill="#FFFFFF" d="M15.677,44.177c0.106-0.356,0.22-0.71,0.316-1.068
		c0.346-1.288,0.69-2.579,1.024-3.871C17.067,39.041,17.154,39,17.348,39c2.34-0.004,4.681-0.016,7.021-0.036
		c1.277-0.011,2.554-0.043,3.83-0.064c0.211-0.003,0.424-0.001,0.659-0.001c-0.04,0.166-0.077,0.328-0.119,0.487
		c-0.421,1.594-0.843,3.187-1.266,4.782c-0.13,0.494-0.44,0.734-0.966,0.735c-0.979,0.001-1.958,0-2.937,0c-2.41,0-4.819,0-7.228,0
		c-0.275,0.001-0.515-0.057-0.665-0.313V44.177z"/>
	<path clip-path="url(#SVGID_2_)" fill="#FFFFFF" d="M131.748,26.588c-0.265,0.998-0.521,1.963-0.775,2.928
		c-1.29,4.878-2.581,9.755-3.871,14.633c-0.145,0.546-0.414,0.753-0.989,0.754c-0.886,0.001-1.775,0-2.662,0
		c-2.471,0-4.94,0-7.411,0c-0.092,0-0.187,0.003-0.275-0.014c-0.291-0.051-0.434-0.193-0.395-0.486
		c0.052-0.392,0.15-0.778,0.249-1.161c1.193-4.619,2.389-9.237,3.582-13.856c0.036-0.142,0.051-0.291,0.075-0.436
		c-0.022-0.009-0.045-0.02-0.067-0.029c-0.083,0.113-0.175,0.219-0.24,0.339c-2.705,4.938-5.408,9.876-8.101,14.821
		c-0.31,0.569-0.741,0.827-1.381,0.826c-3.688-0.008-7.375-0.004-11.062-0.005c-0.114,0-0.229-0.009-0.342-0.027
		c-0.37-0.056-0.576-0.276-0.643-0.645c-0.199-1.104-0.403-2.208-0.606-3.312c-0.482-2.629-0.968-5.256-1.452-7.885
		c-0.051-0.276-0.098-0.555-0.15-0.833c-0.013-0.069-0.037-0.136-0.058-0.204c-0.024-0.004-0.048-0.008-0.072-0.013
		c-0.059,0.134-0.133,0.263-0.17,0.402c-0.934,3.653-1.861,7.307-2.792,10.961c-0.072,0.281-0.144,0.561-0.219,0.842
		c-0.124,0.459-0.416,0.71-0.888,0.713c-1.492,0.008-2.984,0.008-4.476,0c-0.462-0.003-0.648-0.274-0.525-0.742
		c0.444-1.681,0.895-3.361,1.343-5.042c0.73-2.752,1.466-5.502,2.195-8.255c0.044-0.164,0.115-0.239,0.284-0.269
		c2.681-0.497,5.354-1.036,8.042-1.488c2.016-0.339,4.051-0.575,6.077-0.851c0.591-0.081,1.184-0.141,1.775-0.214
		c0.317-0.039,0.324-0.038,0.383,0.276c0.626,3.369,1.253,6.739,1.885,10.109c0.011,0.067,0.06,0.166,0.107,0.177
		c0.065,0.015,0.169-0.021,0.221-0.071c0.084-0.083,0.151-0.191,0.207-0.297c1.972-3.573,3.939-7.146,5.9-10.722
		c0.105-0.19,0.221-0.266,0.44-0.277c2.19-0.114,4.379-0.253,6.57-0.36c1.656-0.08,3.314-0.135,4.974-0.182
		c1.688-0.047,3.378-0.071,5.067-0.104C131.578,26.587,131.651,26.588,131.748,26.588"/>
	<path clip-path="url(#SVGID_2_)" fill="#FFFFFF" d="M44.097,30.949c0.308,0.089,0.59,0.158,0.862,0.252
		c0.854,0.292,1.601,0.739,2.057,1.551c0.541,0.963,0.53,1.987,0.257,3.023c-0.017,0.063-0.14,0.136-0.216,0.142
		c-0.731,0.051-1.464,0.094-2.197,0.127c-1.626,0.075-3.253,0.153-4.88,0.211c-1.436,0.052-2.874,0.08-4.311,0.118
		c-0.03,0.001-0.06-0.006-0.119-0.014c0.015-0.078,0.027-0.148,0.042-0.217c0.148-0.685,0.299-1.371,0.441-2.06
		c0.027-0.132,0.026-0.273,0.021-0.411c-0.009-0.258-0.16-0.43-0.416-0.47c-0.143-0.022-0.288-0.033-0.433-0.033
		c-1.27-0.002-2.539-0.002-3.809,0c-0.16,0-0.322,0.011-0.479,0.034c-0.4,0.059-0.637,0.298-0.738,0.688
		c-0.2,0.776-0.409,1.549-0.604,2.326c-0.045,0.188-0.12,0.259-0.32,0.258c-2.8-0.013-5.599-0.013-8.397-0.029
		c-0.94-0.005-1.88-0.046-2.821-0.071c-0.076-0.002-0.151-0.007-0.248-0.012c0.175-0.662,0.344-1.309,0.517-1.958
		c1.081-4.055,2.157-8.114,3.254-12.165c0.131-0.484,0.053-0.882-0.244-1.24c-0.287-0.345-0.621-0.651-0.933-0.975
		c-0.17-0.177-0.345-0.348-0.5-0.535c-0.15-0.181-0.094-0.33,0.137-0.386c0.118-0.028,0.243-0.03,0.364-0.03
		c4.268-0.002,8.536-0.002,12.804-0.002c0.015,0,0.031,0,0.047,0.001c0.616,0.012,0.813,0.268,0.654,0.861
		c-0.896,3.34-1.794,6.679-2.692,10.017c-0.186,0.689,0.124,1.023,0.824,0.896c0.376-0.069,0.687-0.249,0.941-0.527
		c3.191-3.494,6.386-6.986,9.571-10.484c0.468-0.516,1.013-0.77,1.712-0.767c3.121,0.012,6.242,0.004,9.362,0.006
		c0.152,0,0.307,0.007,0.454,0.038c0.184,0.042,0.255,0.174,0.17,0.349c-0.062,0.128-0.141,0.253-0.237,0.36
		c-3.258,3.661-6.519,7.319-9.778,10.979C44.186,30.839,44.153,30.88,44.097,30.949"/>
	<path clip-path="url(#SVGID_2_)" fill="#FFFFFF" d="M54.773,35.375c0.233-0.881,0.454-1.714,0.676-2.548
		c0.941-3.532,1.875-7.067,2.835-10.595c0.132-0.486,0.042-0.882-0.251-1.238c-0.28-0.342-0.61-0.641-0.917-0.96
		c-0.175-0.182-0.357-0.358-0.517-0.553c-0.141-0.17-0.087-0.316,0.13-0.373c0.117-0.03,0.243-0.034,0.363-0.034
		c8.445-0.002,16.89-0.001,25.335-0.002c0.983-0.001,1.936,0.136,2.815,0.606c0.979,0.521,1.712,1.255,1.965,2.374
		c0.162,0.718,0.063,1.425-0.123,2.129c-0.527,1.961-1.044,3.925-1.555,5.89c-0.058,0.222-0.154,0.319-0.382,0.365
		c-3.786,0.773-7.57,1.555-11.354,2.333c-0.238,0.05-0.478,0.086-0.754,0.135c0.091-0.355,0.171-0.677,0.256-0.998
		c0.853-3.217,1.705-6.434,2.556-9.651c0.158-0.595,0.014-0.799-0.612-0.803c-1.415-0.006-2.83-0.005-4.245,0.003
		c-0.603,0.003-0.86,0.216-1.012,0.792c-1.003,3.799-2.009,7.6-3.004,11.402c-0.065,0.245-0.176,0.344-0.424,0.375
		c-1.985,0.25-3.966,0.532-5.952,0.767c-1.57,0.188-3.146,0.322-4.719,0.479C55.529,35.305,55.172,35.337,54.773,35.375"/>
	<path clip-path="url(#SVGID_2_)" fill="#FFFFFF" d="M85.084,31.658c-0.305,1.418-0.648,2.785-1.728,3.824
		c-1.22,1.177-2.646,1.964-4.32,2.258c-0.524,0.091-1.063,0.133-1.596,0.135c-3.572,0.011-7.144,0.006-10.717,0.006
		c-0.705,0-0.973,0.204-1.151,0.891c-0.463,1.796-0.922,3.592-1.385,5.389c-0.126,0.488-0.436,0.741-0.94,0.741
		c-3.42,0.001-6.838,0.001-10.258,0c-0.474-0.001-0.682-0.263-0.562-0.715c0.592-2.244,1.192-4.485,1.785-6.727
		c0.037-0.139,0.1-0.194,0.247-0.21c1.533-0.174,3.066-0.343,4.595-0.539c1.681-0.216,3.36-0.453,5.039-0.695
		c0.981-0.143,1.958-0.318,2.939-0.472c0.158-0.025,0.318-0.037,0.479-0.037c1.324-0.003,2.646-0.005,3.97-0.001
		c0.684,0.001,1.001-0.281,1.08-0.818c0.023-0.15,0.1-0.229,0.262-0.265c4.052-0.915,8.104-1.833,12.156-2.752
		C85.006,31.664,85.036,31.663,85.084,31.658"/>
	<path clip-path="url(#SVGID_2_)" fill="#FFFFFF" d="M89.947,29.458c0.189-0.714,0.374-1.419,0.561-2.125
		c0.478-1.778,0.964-3.553,1.417-5.336c0.055-0.211-0.001-0.505-0.116-0.695c-0.206-0.341-0.483-0.645-0.753-0.943
		c-0.26-0.289-0.56-0.543-0.822-0.831c-0.198-0.218-0.124-0.396,0.168-0.442c0.105-0.017,0.214-0.012,0.32-0.013
		c4.253,0,8.506,0,12.759,0c0.1,0,0.2,0,0.298,0.007c0.438,0.031,0.673,0.241,0.752,0.665c0.453,2.431,0.908,4.862,1.364,7.294
		c0.046,0.247,0.031,0.256-0.233,0.283c-1.991,0.209-3.981,0.404-5.969,0.637c-3.24,0.378-6.457,0.902-9.662,1.508
		C90.011,29.472,89.986,29.463,89.947,29.458"/>
	<path clip-path="url(#SVGID_2_)" fill="#FFFFFF" d="M114.921,26.684c0.168-0.311,0.318-0.591,0.471-0.87
		c1.088-1.974,2.183-3.942,3.257-5.923c0.308-0.569,0.749-0.821,1.387-0.82c4.26,0.007,8.521,0.002,12.782,0.005
		c0.157,0,0.321,0.014,0.475,0.056c0.24,0.068,0.361,0.307,0.299,0.54c-0.578,2.167-1.159,4.335-1.729,6.504
		c-0.05,0.188-0.125,0.238-0.311,0.238c-2.516-0.003-5.031-0.016-7.546,0.009c-1.896,0.019-3.793,0.08-5.688,0.134
		c-1.046,0.03-2.092,0.084-3.138,0.128C115.104,26.687,115.03,26.684,114.921,26.684"/>
	<path clip-path="url(#SVGID_2_)" fill="#FFFFFF" d="M46.682,37.997c-0.143,0.537-0.277,1.045-0.412,1.552
		c-0.153,0.576-0.308,1.151-0.462,1.726c-0.126,0.474-0.01,0.743,0.459,0.892c0.397,0.127,0.819,0.175,1.227,0.274
		c0.17,0.04,0.333,0.117,0.499,0.178c0.022,0.045,0.044,0.088,0.066,0.132c-0.082,0.042-0.169,0.074-0.245,0.126
		c-0.84,0.571-1.673,1.155-2.522,1.712c-0.356,0.234-0.773,0.315-1.204,0.314c-3.373,0-6.747,0-10.121,0
		c-0.098,0-0.2-0.001-0.295-0.022c-0.306-0.066-0.446-0.205-0.399-0.513c0.097-0.646,0.194-1.3,0.371-1.929
		c0.341-1.203,0.739-2.391,1.107-3.587c0.045-0.148,0.128-0.18,0.267-0.186c1.283-0.059,2.566-0.113,3.849-0.185
		c1.632-0.093,3.264-0.2,4.896-0.306c0.824-0.054,1.646-0.121,2.469-0.177C46.366,37.988,46.502,37.997,46.682,37.997"/>
	<path clip-path="url(#SVGID_2_)" fill="#FFFFFF" d="M96.71,48.459c-0.389,0.356-0.828,0.355-1.279,0.351
		c-0.91-0.013-1.82,0.003-2.731-0.008c-0.24-0.003-0.364,0.076-0.419,0.313c-0.099,0.424-0.219,0.842-0.327,1.265
		c-0.059,0.228-0.023,0.274,0.212,0.274c0.933,0.003,1.866,0.001,2.8,0.001c0.312,0,0.607,0.062,0.868,0.242
		c0.333,0.229,0.464,0.572,0.365,0.962c-0.159,0.621-0.312,1.244-0.488,1.86c-0.207,0.72-0.759,1.06-1.44,1.231
		c-0.14,0.035-0.288,0.047-0.433,0.047C91.873,55.002,89.906,55,87.94,55c-0.052,0-0.105-0.005-0.155-0.008
		c-0.006-0.022-0.016-0.046-0.01-0.049c0.372-0.292,0.739-0.581,1.256-0.575c1.024,0.016,2.05-0.001,3.075,0.011
		c0.251,0.002,0.373-0.086,0.426-0.335c0.092-0.426,0.216-0.844,0.324-1.265c0.066-0.255,0.032-0.301-0.229-0.301
		c-0.926-0.002-1.852,0.014-2.777-0.011c-0.272-0.009-0.563-0.083-0.808-0.203c-0.393-0.19-0.527-0.566-0.422-0.988
		c0.155-0.599,0.312-1.196,0.475-1.794c0.203-0.742,0.985-1.299,1.856-1.303c1.974-0.006,3.947-0.007,5.921,0
		c2.146,0.008,4.294,0.029,6.441,0.043c0.429,0.004,0.856-0.003,1.285,0.004c0.116,0.001,0.289-0.059,0.295,0.149
		c0.004,0.185-0.041,0.355-0.251,0.413c-0.064,0.019-0.136,0.016-0.204,0.016c-0.56,0-1.117,0.008-1.676-0.003
		c-0.229-0.006-0.34,0.076-0.399,0.306c-0.481,1.846-0.972,3.691-1.461,5.535c-0.09,0.343-0.109,0.357-0.471,0.357
		c-0.804,0-1.606,0.002-2.41,0c-0.272-0.001-0.298-0.033-0.229-0.294c0.494-1.859,0.989-3.718,1.483-5.576
		c0.074-0.281,0.04-0.325-0.249-0.325c-0.483,0-0.965-0.009-1.447,0.002C97.251,48.814,96.93,48.816,96.71,48.459"/>
	<path clip-path="url(#SVGID_2_)" fill="#FFFFFF" d="M70.931,48.79c-0.145,0-0.291,0.012-0.435-0.002
		c-0.247-0.02-0.383,0.071-0.433,0.325c-0.055,0.276-0.141,0.545-0.213,0.817c-0.365,1.372-0.729,2.742-1.094,4.111
		c-0.077,0.289-0.037,0.344,0.259,0.345c0.32,0.002,0.641-0.001,0.962,0c0.18,0.002,0.281-0.077,0.325-0.254
		c0.078-0.318,0.167-0.635,0.25-0.95c0.364-1.371,0.73-2.742,1.094-4.113c0.06-0.228,0.026-0.272-0.21-0.278
		C71.268,48.788,71.1,48.79,70.931,48.79 M71.091,48.179c0.765,0,1.53-0.005,2.294,0.003c0.188,0.002,0.384,0.027,0.562,0.083
		c0.587,0.184,0.831,0.639,0.674,1.233c-0.359,1.364-0.732,2.727-1.082,4.094c-0.201,0.786-0.747,1.173-1.482,1.359
		c-0.154,0.038-0.318,0.047-0.478,0.047c-1.529,0.005-3.059,0.002-4.587,0.004c-0.32,0-0.623-0.061-0.89-0.249
		c-0.325-0.229-0.454-0.555-0.353-0.941c0.375-1.446,0.752-2.895,1.141-4.338c0.2-0.743,0.993-1.283,1.861-1.295h0.046H71.091z"/>
	<path clip-path="url(#SVGID_2_)" fill="#FFFFFF" d="M79.079,51.916c0.129-0.01,0.194-0.021,0.259-0.021
		c1.08-0.001,2.157-0.001,3.236-0.001c0.27,0,0.302,0.04,0.234,0.294c-0.224,0.848-0.452,1.696-0.668,2.546
		c-0.049,0.188-0.145,0.269-0.336,0.269c-1.997-0.004-3.994,0.004-5.99-0.01c-0.228-0.001-0.471-0.071-0.679-0.171
		c-0.433-0.205-0.595-0.585-0.475-1.046c0.373-1.434,0.747-2.867,1.132-4.297c0.195-0.729,0.971-1.292,1.813-1.298
		c1.599-0.011,3.197-0.007,4.796,0.002c0.186,0.001,0.382,0.052,0.554,0.122c0.501,0.201,0.713,0.628,0.584,1.149
		c-0.131,0.526-0.278,1.047-0.413,1.572c-0.047,0.187-0.156,0.26-0.346,0.259c-0.842-0.004-1.684-0.005-2.524,0
		c-0.193,0.002-0.278-0.071-0.229-0.26c0.094-0.354,0.199-0.706,0.3-1.056c0.083-0.294,0.179-0.586,0.245-0.883
		c0.059-0.265-0.005-0.327-0.279-0.328c-0.321-0.001-0.643,0.003-0.963-0.001c-0.18-0.003-0.281,0.067-0.329,0.247
		c-0.45,1.697-0.906,3.393-1.358,5.089c-0.058,0.218-0.004,0.287,0.216,0.291c0.336,0.005,0.673-0.002,1.01,0.002
		c0.188,0.002,0.294-0.078,0.34-0.266c0.122-0.488,0.262-0.973,0.379-1.463c0.019-0.078-0.014-0.192-0.064-0.258
		C79.401,52.242,79.253,52.104,79.079,51.916"/>
	<path clip-path="url(#SVGID_2_)" fill="#FFFFFF" d="M112.537,55c-0.778,0-1.558,0.002-2.34-0.001c-0.329,0-0.638-0.07-0.901-0.278
		c-0.289-0.231-0.409-0.532-0.313-0.896c0.379-1.461,0.76-2.925,1.154-4.382c0.188-0.691,0.957-1.25,1.771-1.26
		c1.612-0.016,3.227-0.007,4.84,0c0.165,0,0.335,0.043,0.492,0.098c0.522,0.192,0.764,0.646,0.633,1.19
		c-0.13,0.534-0.277,1.063-0.412,1.596c-0.045,0.183-0.147,0.266-0.342,0.265c-0.841-0.005-1.683-0.006-2.521,0.001
		c-0.212,0.002-0.287-0.086-0.238-0.277c0.11-0.422,0.23-0.838,0.346-1.258c0.064-0.235,0.136-0.468,0.191-0.706
		c0.05-0.223,0-0.283-0.223-0.286c-0.344-0.002-0.688,0.005-1.032-0.001c-0.18-0.003-0.28,0.072-0.326,0.248
		c-0.443,1.676-0.894,3.347-1.339,5.021c-0.063,0.24-0.008,0.31,0.239,0.312c0.329,0.005,0.658-0.002,0.987,0.001
		c0.189,0.004,0.289-0.08,0.339-0.266c0.163-0.628,0.346-1.251,0.507-1.879c0.056-0.225,0.17-0.309,0.401-0.306
		c0.819,0.011,1.638,0.004,2.456,0.005c0.277,0,0.306,0.039,0.234,0.312c-0.113,0.42-0.23,0.839-0.346,1.26
		c-0.258,0.938-0.963,1.481-1.939,1.486C114.084,55.004,113.312,55,112.537,55"/>
	<path clip-path="url(#SVGID_2_)" fill="#FFFFFF" d="M117.77,54.923c0.394-0.226,0.726-0.558,1.238-0.552
		c1.024,0.011,2.05,0.003,3.074,0.003c0.365,0,0.379-0.01,0.471-0.355c0.109-0.422,0.222-0.841,0.33-1.264
		c0.057-0.225,0.018-0.275-0.219-0.276c-0.93-0.002-1.864,0.014-2.798-0.012c-0.271-0.007-0.562-0.082-0.807-0.203
		c-0.391-0.189-0.528-0.566-0.419-0.987c0.152-0.6,0.31-1.197,0.473-1.794c0.196-0.719,0.952-1.29,1.785-1.298
		c2.019-0.016,4.039-0.006,6.057-0.006c0.034,0,0.069,0.013,0.112,0.049c-0.36,0.246-0.676,0.573-1.15,0.577
		c-1.07,0.006-2.141,0.007-3.211-0.002c-0.23-0.002-0.353,0.073-0.404,0.303c-0.101,0.423-0.22,0.842-0.329,1.264
		c-0.062,0.24-0.026,0.285,0.223,0.286c0.932,0.002,1.864-0.017,2.798,0.011c0.285,0.009,0.59,0.102,0.842,0.234
		c0.363,0.191,0.48,0.566,0.378,0.968c-0.148,0.576-0.31,1.15-0.448,1.729c-0.19,0.79-0.748,1.17-1.484,1.356
		c-0.14,0.034-0.288,0.044-0.432,0.045c-1.958,0.004-3.917,0.002-5.873,0.001c-0.06,0-0.12-0.005-0.179-0.008
		C117.788,54.968,117.778,54.945,117.77,54.923"/>
	<path clip-path="url(#SVGID_2_)" fill="#FFFFFF" d="M65.506,54.46c-0.407,0.263-0.762,0.567-1.325,0.555
		c-1.757-0.037-3.517-0.013-5.276-0.013c-0.376,0-0.39-0.019-0.295-0.372c0.487-1.829,0.97-3.659,1.468-5.484
		c0.073-0.268,0.021-0.457-0.177-0.633c-0.092-0.082-0.172-0.18-0.303-0.317c0.152-0.009,0.232-0.017,0.312-0.017
		c1.048-0.001,2.095-0.001,3.143,0c0.329,0,0.351,0.027,0.269,0.34c-0.484,1.813-0.968,3.628-1.452,5.439
		c-0.013,0.052-0.023,0.105-0.041,0.156c-0.066,0.195,0.021,0.272,0.208,0.272c0.062,0,0.122,0.001,0.184,0.001h3.028h0.245
		C65.498,54.412,65.502,54.436,65.506,54.46"/>
	<path clip-path="url(#SVGID_2_)" fill="#FFFFFF" d="M84.251,48.195c0.145-0.008,0.224-0.017,0.305-0.017
		c1.055-0.001,2.108-0.001,3.165-0.001c0.297,0.001,0.327,0.037,0.254,0.315c-0.544,2.066-1.091,4.131-1.632,6.198
		c-0.057,0.22-0.161,0.316-0.396,0.314c-0.827-0.012-1.652-0.004-2.478-0.007c-0.27,0-0.296-0.035-0.227-0.296
		c0.483-1.819,0.96-3.643,1.459-5.461c0.092-0.334,0.041-0.576-0.222-0.791C84.406,48.393,84.352,48.311,84.251,48.195"/>
	<path clip-path="url(#SVGID_2_)" fill="#FFFFFF" d="M105.412,48.199c0.132-0.011,0.202-0.021,0.273-0.021
		c1.07-0.001,2.142-0.001,3.211,0c0.276,0,0.311,0.043,0.24,0.311c-0.546,2.066-1.094,4.131-1.632,6.198
		c-0.062,0.234-0.176,0.322-0.42,0.318C106.292,54.993,105.495,55,104.7,55c-0.363,0-0.378-0.019-0.287-0.359
		c0.484-1.813,0.963-3.629,1.458-5.438c0.08-0.298,0.032-0.519-0.198-0.717C105.591,48.415,105.525,48.325,105.412,48.199"/>
</g>
</svg>
